<?xml version="1.0" encoding="UTF-8" standalone="no"?>
<svg
   xmlns:dc="http://purl.org/dc/elements/1.1/"
   xmlns:cc="http://creativecommons.org/ns#"
   xmlns:rdf="http://www.w3.org/1999/02/22-rdf-syntax-ns#"
   xmlns:svg="http://www.w3.org/2000/svg"
   xmlns="http://www.w3.org/2000/svg"
   xmlns:sodipodi="http://sodipodi.sourceforge.net/DTD/sodipodi-0.dtd"
   xmlns:inkscape="http://www.inkscape.org/namespaces/inkscape"
   inkscape:export-ydpi="96"
   inkscape:export-xdpi="96"
   inkscape:export-filename="/home/ainali/Foundation for Public Code/stream/Arnau.png"
   sodipodi:docname="Podcast-HD.svg"
   inkscape:version="1.0 (1.0+r73+1)"
   id="svg8"
   version="1.1"
   viewBox="0 0 507.99999 285.75001"
   height="1080"
   width="1920">
  <defs
     id="defs2" />
  <sodipodi:namedview
     inkscape:window-maximized="1"
     inkscape:window-y="27"
     inkscape:window-x="67"
     inkscape:window-height="1025"
     inkscape:window-width="1853"
     inkscape:guide-bbox="true"
     showguides="true"
     units="px"
     showgrid="false"
     inkscape:document-rotation="0"
     inkscape:current-layer="layer1"
     inkscape:document-units="mm"
     inkscape:cy="730.54498"
     inkscape:cx="911.96823"
     inkscape:zoom="0.35"
     inkscape:pageshadow="2"
     inkscape:pageopacity="0.0"
     borderopacity="1.0"
     bordercolor="#666666"
     pagecolor="#ffffff"
     id="base" />
  <metadata
     id="metadata5">
    <rdf:RDF>
      <cc:Work
         rdf:about="">
        <dc:format>image/svg+xml</dc:format>
        <dc:type
           rdf:resource="http://purl.org/dc/dcmitype/StillImage" />
        <dc:title />
      </cc:Work>
    </rdf:RDF>
  </metadata>
  <g
     id="layer1"
     inkscape:groupmode="layer"
     inkscape:label="Layer 1">
    <rect
       inkscape:export-ydpi="111"
       inkscape:export-xdpi="111"
       inkscape:export-filename="/home/ainali/Foundation for Public Code/stream/Example.png"
       y="0"
       x="1.4210855e-14"
       height="285.75"
       width="508"
       id="rect17110"
       style="fill:#ffffff;stroke-width:0.765" />
    <g
       style="fill:none"
       id="g16647"
       transform="matrix(0.02137864,0,0,0.02137864,27.670649,244.11657)">
      <path
         id="path16635"
         fill="#ffffff"
         d="m 451,9 443,255.75 v 511.5 L 451,1032 8,776.25 v -511.5 z" />
      <path
         id="path16637"
         fill="#000000"
         d="m 757.013,781.321 73,-42.206 V 427 l -73,42.206 z" />
      <path
         id="path16639"
         fill="#000000"
         d="m 703.013,812.543 -72,41.628 V 542.056 l 72,-41.628 z" />
      <path
         id="path16641"
         fill="#000000"
         d="M 505.013,927.021 V 614.905 l 72,-41.628 v 312.116 z" />
      <path
         id="path16643"
         fill="#000000"
         d="M 451.015,0 902.03,260.394 V 781.181 L 451.015,1041.57 0,781.181 V 260.394 Z m -0.002,21 433.012,250 H 675.59 L 451.013,521 18.0001,271 Z M 18,333 18.0001,771 451.013,1021 884.025,771 V 333 L 451.013,583 Z"
         clip-rule="evenodd"
         fill-rule="evenodd" />
      <path
         id="path16645"
         fill="#000000"
         d="M 1271.25,437 V 259 h 116.25 v 25.75 h -84.25 v 48.75 h 79.25 v 26 h -79.25 V 437 Z m 195.63,2 c -12.84,0 -24.17,-2.667 -34,-8 -9.67,-5.333 -17.17,-12.917 -22.5,-22.75 -5.17,-10 -7.75,-21.667 -7.75,-35 0,-13.333 2.58,-24.917 7.75,-34.75 5.33,-10 12.83,-17.667 22.5,-23 9.83,-5.333 21.16,-8 34,-8 12.66,0 23.83,2.667 33.5,8 9.66,5.333 17.08,13 22.25,23 5.33,9.833 8,21.417 8,34.75 0,13.333 -2.67,25 -8,35 -5.17,9.833 -12.59,17.417 -22.25,22.75 -9.67,5.333 -20.84,8 -33.5,8 z m -0.25,-24.5 c 10.66,0 18.75,-3.417 24.25,-10.25 5.66,-7 8.5,-17.333 8.5,-31 0,-13.5 -2.84,-23.75 -8.5,-30.75 -5.67,-7.167 -13.67,-10.75 -24,-10.75 -10.5,0 -18.59,3.583 -24.25,10.75 -5.67,7 -8.5,17.25 -8.5,30.75 0,13.667 2.75,24 8.25,31 5.66,6.833 13.75,10.25 24.25,10.25 z M 1672.57,310.75 V 437 h -30.5 v -19.5 c -4,7 -9.33,12.333 -16,16 -6.66,3.667 -14.33,5.5 -23,5.5 -30.83,0 -46.25,-17.333 -46.25,-52 v -76.25 h 31 v 76.5 c 0,9.167 1.84,15.917 5.5,20.25 3.84,4.333 9.67,6.5 17.5,6.5 9.17,0 16.5,-3 22,-9 5.5,-6 8.25,-14 8.25,-24 v -70.25 z m 106.18,-3.25 c 30.17,0 45.25,17.333 45.25,52 V 437 h -31.25 v -76 c 0,-10 -1.92,-17.25 -5.75,-21.75 -3.83,-4.667 -9.75,-7 -17.75,-7 -9.5,0 -17.17,3.083 -23,9.25 -5.83,6 -8.75,14 -8.75,24 V 437 h -31 v -90.5 c 0,-13.333 -0.67,-25.25 -2,-35.75 h 29.25 l 2.25,20.75 c 4.33,-7.667 10.17,-13.583 17.5,-17.75 7.5,-4.167 15.92,-6.25 25.25,-6.25 z M 1977.88,253 v 184 h -30.75 v -20.25 c -3.83,7 -9.33,12.5 -16.5,16.5 -7.16,3.833 -15.33,5.75 -24.5,5.75 -10.83,0 -20.5,-2.75 -29,-8.25 -8.5,-5.5 -15.16,-13.25 -20,-23.25 -4.66,-10.167 -7,-21.75 -7,-34.75 0,-13 2.34,-24.417 7,-34.25 4.67,-9.833 11.25,-17.417 19.75,-22.75 8.5,-5.5 18.25,-8.25 29.25,-8.25 9,0 17,1.917 24,5.75 7.17,3.667 12.67,8.917 16.5,15.75 v -76 z m -63.5,161.5 c 10.34,0 18.34,-3.583 24,-10.75 5.84,-7.167 8.75,-17.333 8.75,-30.5 0,-13.167 -2.83,-23.333 -8.5,-30.5 -5.66,-7.167 -13.66,-10.75 -24,-10.75 -10.5,0 -18.66,3.583 -24.5,10.75 -5.66,7 -8.5,17 -8.5,30 0,13.167 2.84,23.417 8.5,30.75 5.84,7.333 13.92,11 24.25,11 z M 2132.67,310.75 V 437 h -30.75 v -20.25 c -3.83,7 -9.33,12.5 -16.5,16.5 -7.17,3.833 -15.33,5.75 -24.5,5.75 -11,0 -20.75,-2.667 -29.25,-8 -8.5,-5.333 -15.08,-12.917 -19.75,-22.75 -4.67,-9.833 -7,-21.25 -7,-34.25 0,-13 2.33,-24.5 7,-34.5 4.83,-10.167 11.5,-18 20,-23.5 8.5,-5.667 18.17,-8.5 29,-8.5 9.17,0 17.33,2 24.5,6 7.17,3.833 12.67,9.25 16.5,16.25 v -19 z m -63.25,103.75 c 10.33,0 18.33,-3.583 24,-10.75 5.67,-7.167 8.5,-17.25 8.5,-30.25 0,-13.333 -2.83,-23.583 -8.5,-30.75 -5.67,-7.167 -13.75,-10.75 -24.25,-10.75 -10.33,0 -18.42,3.75 -24.25,11.25 -5.67,7.333 -8.5,17.583 -8.5,30.75 0,13 2.83,23 8.5,30 5.83,7 14,10.5 24.5,10.5 z m 137.04,-80.25 v 56.5 c 0,14.833 6.91,22.25 20.75,22.25 3.83,0 8,-0.667 12.5,-2 v 24.75 c -5.5,2 -12.17,3 -20,3 -14.34,0 -25.34,-4 -33,-12 -7.67,-8 -11.5,-19.5 -11.5,-34.5 v -58 h -24.25 v -23.5 h 24.25 V 280 l 31.25,-10.5 v 41.25 h 33.5 v 23.5 z M 2261.43,437 V 310.75 h 31 V 437 Z m -2,-183.5 h 34.75 v 30.75 h -34.75 z M 2383.87,439 c -12.84,0 -24.17,-2.667 -34,-8 -9.67,-5.333 -17.17,-12.917 -22.5,-22.75 -5.17,-10 -7.75,-21.667 -7.75,-35 0,-13.333 2.58,-24.917 7.75,-34.75 5.33,-10 12.83,-17.667 22.5,-23 9.83,-5.333 21.16,-8 34,-8 12.66,0 23.83,2.667 33.5,8 9.66,5.333 17.08,13 22.25,23 5.33,9.833 8,21.417 8,34.75 0,13.333 -2.67,25 -8,35 -5.17,9.833 -12.59,17.417 -22.25,22.75 -9.67,5.333 -20.84,8 -33.5,8 z m -0.25,-24.5 c 10.66,0 18.75,-3.417 24.25,-10.25 5.66,-7 8.5,-17.333 8.5,-31 0,-13.5 -2.84,-23.75 -8.5,-30.75 -5.67,-7.167 -13.67,-10.75 -24,-10.75 -10.5,0 -18.59,3.583 -24.25,10.75 -5.67,7 -8.5,17.25 -8.5,30.75 0,13.667 2.75,24 8.25,31 5.66,6.833 13.75,10.25 24.25,10.25 z m 163.2,-107 c 30.16,0 45.25,17.333 45.25,52 V 437 h -31.25 v -76 c 0,-10 -1.92,-17.25 -5.75,-21.75 -3.84,-4.667 -9.75,-7 -17.75,-7 -9.5,0 -17.17,3.083 -23,9.25 -5.84,6 -8.75,14 -8.75,24 V 437 h -31 v -90.5 c 0,-13.333 -0.67,-25.25 -2,-35.75 h 29.25 l 2.25,20.75 c 4.33,-7.667 10.16,-13.583 17.5,-17.75 7.5,-4.167 15.91,-6.25 25.25,-6.25 z m 206.73,-29.75 c -13.5,0 -20.25,7.417 -20.25,22.25 v 10.75 h 28.25 v 23.5 H 2733.3 V 437 h -31.25 V 334.25 h -24 v -23.5 h 24 V 298.5 c 0,-15 3.75,-26.5 11.25,-34.5 7.67,-8.167 18.59,-12.25 32.75,-12.25 7.84,0 14.42,1 19.75,3 v 24.75 c -4.66,-1.167 -8.75,-1.75 -12.25,-1.75 z M 2841.63,439 c -12.83,0 -24.17,-2.667 -34,-8 -9.67,-5.333 -17.17,-12.917 -22.5,-22.75 -5.17,-10 -7.75,-21.667 -7.75,-35 0,-13.333 2.58,-24.917 7.75,-34.75 5.33,-10 12.83,-17.667 22.5,-23 9.83,-5.333 21.17,-8 34,-8 12.67,0 23.83,2.667 33.5,8 9.67,5.333 17.08,13 22.25,23 5.33,9.833 8,21.417 8,34.75 0,13.333 -2.67,25 -8,35 -5.17,9.833 -12.58,17.417 -22.25,22.75 -9.67,5.333 -20.83,8 -33.5,8 z m -0.25,-24.5 c 10.67,0 18.75,-3.417 24.25,-10.25 5.67,-7 8.5,-17.333 8.5,-31 0,-13.5 -2.83,-23.75 -8.5,-30.75 -5.67,-7.167 -13.67,-10.75 -24,-10.75 -10.5,0 -18.58,3.583 -24.25,10.75 -5.67,7 -8.5,17.25 -8.5,30.75 0,13.667 2.75,24 8.25,31 5.67,6.833 13.75,10.25 24.25,10.25 z m 158.95,-106.75 c 4.83,0 9,0.667 12.5,2 l -0.25,28.5 c -5.33,-2.167 -10.83,-3.25 -16.5,-3.25 -10.67,0 -18.83,3.083 -24.5,9.25 -5.5,6.167 -8.25,14.333 -8.25,24.5 V 437 h -31 v -90.5 c 0,-13.333 -0.67,-25.25 -2,-35.75 h 29.25 l 2.5,22.25 c 3.17,-8.167 8.17,-14.417 15,-18.75 6.83,-4.333 14.58,-6.5 23.25,-6.5 z M 1271.25,573 h 77.25 c 19.17,0 34.08,4.667 44.75,14 10.67,9.167 16,21.75 16,37.75 0,16 -5.42,28.667 -16.25,38 -10.67,9.333 -25.5,14 -44.5,14 h -45 V 751 h -32.25 z m 73.5,78.75 c 11.17,0 19.58,-2.25 25.25,-6.75 5.83,-4.667 8.75,-11.333 8.75,-20 0,-8.833 -2.83,-15.5 -8.5,-20 -5.67,-4.667 -14.17,-7 -25.5,-7 h -41.25 v 53.75 z m 203.56,-27 V 751 h -30.5 v -19.5 c -4,7 -9.34,12.333 -16,16 -6.67,3.667 -14.34,5.5 -23,5.5 -30.84,0 -46.25,-17.333 -46.25,-52 v -76.25 h 31 v 76.5 c 0,9.167 1.83,15.917 5.5,20.25 3.83,4.333 9.66,6.5 17.5,6.5 9.16,0 16.5,-3 22,-9 5.5,-6 8.25,-14 8.25,-24 v -70.25 z m 105.92,-3.25 c 11,0 20.67,2.75 29,8.25 8.5,5.333 15.09,12.917 19.75,22.75 4.67,9.833 7,21.25 7,34.25 0,13 -2.41,24.583 -7.25,34.75 -4.66,10 -11.25,17.75 -19.75,23.25 -8.33,5.5 -17.91,8.25 -28.75,8.25 -9.33,0 -17.66,-2 -25,-6 -7.16,-4 -12.58,-9.583 -16.25,-16.75 V 751 h -30.75 V 567 h 31 v 76.75 c 3.84,-7 9.34,-12.417 16.5,-16.25 7.17,-4 15.34,-6 24.5,-6 z m -8.25,107 c 10.34,0 18.34,-3.667 24,-11 5.67,-7.333 8.5,-17.583 8.5,-30.75 0,-13 -2.83,-23 -8.5,-30 -5.66,-7.167 -13.75,-10.75 -24.25,-10.75 -10.5,0 -18.58,3.583 -24.25,10.75 -5.66,7.167 -8.5,17.333 -8.5,30.5 0,13.333 2.84,23.583 8.5,30.75 5.67,7 13.84,10.5 24.5,10.5 z m 91.28,22.5 V 567 h 31 v 184 z m 65.19,0 V 624.75 h 31 V 751 Z m -2,-183.5 h 34.75 v 30.75 h -34.75 z M 1924.88,753 c -13.16,0 -24.58,-2.667 -34.25,-8 -9.66,-5.333 -17.08,-12.833 -22.25,-22.5 -5.16,-9.833 -7.75,-21.333 -7.75,-34.5 0,-13.167 2.67,-24.75 8,-34.75 5.5,-10 13.17,-17.75 23,-23.25 10,-5.667 21.5,-8.5 34.5,-8.5 9,0 17.67,1.417 26,4.25 8.5,2.833 15.25,6.75 20.25,11.75 l -8.75,22 c -5.33,-4.333 -11,-7.583 -17,-9.75 -6,-2.333 -11.91,-3.5 -17.75,-3.5 -11.33,0 -20.16,3.583 -26.5,10.75 -6.33,7 -9.5,17.167 -9.5,30.5 0,13.333 3.09,23.5 9.25,30.5 6.34,7 15.25,10.5 26.75,10.5 5.84,0 11.75,-1.167 17.75,-3.5 6,-2.333 11.67,-5.667 17,-10 l 8.75,22 c -5.33,5 -12.25,8.917 -20.75,11.75 -8.5,2.833 -17.41,4.25 -26.75,4.25 z m 220.09,0.25 c -17.5,0 -32.83,-3.75 -46,-11.25 -13,-7.5 -23,-18.083 -30,-31.75 -7,-13.833 -10.5,-30 -10.5,-48.5 0,-18.333 3.5,-34.333 10.5,-48 7,-13.833 17,-24.417 30,-31.75 13.17,-7.5 28.5,-11.25 46,-11.25 12,0 23.25,1.917 33.75,5.75 10.67,3.667 19.5,8.833 26.5,15.5 l -10.5,23.5 c -8,-6.5 -16,-11.167 -24,-14 -7.83,-3 -16.25,-4.5 -25.25,-4.5 -17.17,0 -30.5,5.583 -40,16.75 -9.33,11.167 -14,27.167 -14,48 0,21 4.67,37.167 14,48.5 9.33,11.167 22.67,16.75 40,16.75 9,0 17.42,-1.417 25.25,-4.25 8,-3 16,-7.75 24,-14.25 l 10.5,23.5 c -7,6.667 -15.83,11.917 -26.5,15.75 -10.5,3.667 -21.75,5.5 -33.75,5.5 z M 2287.92,753 c -12.83,0 -24.17,-2.667 -34,-8 -9.67,-5.333 -17.17,-12.917 -22.5,-22.75 -5.17,-10 -7.75,-21.667 -7.75,-35 0,-13.333 2.58,-24.917 7.75,-34.75 5.33,-10 12.83,-17.667 22.5,-23 9.83,-5.333 21.17,-8 34,-8 12.67,0 23.83,2.667 33.5,8 9.67,5.333 17.08,13 22.25,23 5.33,9.833 8,21.417 8,34.75 0,13.333 -2.67,25 -8,35 -5.17,9.833 -12.58,17.417 -22.25,22.75 -9.67,5.333 -20.83,8 -33.5,8 z m -0.25,-24.5 c 10.67,0 18.75,-3.417 24.25,-10.25 5.67,-7 8.5,-17.333 8.5,-31 0,-13.5 -2.83,-23.75 -8.5,-30.75 -5.67,-7.167 -13.67,-10.75 -24,-10.75 -10.5,0 -18.58,3.583 -24.25,10.75 -5.67,7 -8.5,17.25 -8.5,30.75 0,13.667 2.75,24 8.25,31 5.67,6.833 13.75,10.25 24.25,10.25 z M 2499.37,567 v 184 h -30.75 v -20.25 c -3.83,7 -9.33,12.5 -16.5,16.5 -7.17,3.833 -15.33,5.75 -24.5,5.75 -10.83,0 -20.5,-2.75 -29,-8.25 -8.5,-5.5 -15.17,-13.25 -20,-23.25 -4.67,-10.167 -7,-21.75 -7,-34.75 0,-13 2.33,-24.417 7,-34.25 4.67,-9.833 11.25,-17.417 19.75,-22.75 8.5,-5.5 18.25,-8.25 29.25,-8.25 9,0 17,1.917 24,5.75 7.17,3.667 12.67,8.917 16.5,15.75 v -76 z m -63.5,161.5 c 10.33,0 18.33,-3.583 24,-10.75 5.83,-7.167 8.75,-17.333 8.75,-30.5 0,-13.167 -2.83,-23.333 -8.5,-30.5 -5.67,-7.167 -13.67,-10.75 -24,-10.75 -10.5,0 -18.67,3.583 -24.5,10.75 -5.67,7 -8.5,17 -8.5,30 0,13.167 2.83,23.417 8.5,30.75 5.83,7.333 13.92,11 24.25,11 z m 208.03,-39 h -87 c 0.67,13.5 4,23.5 10,30 6.17,6.333 15.25,9.5 27.25,9.5 13.84,0 26.67,-4.5 38.5,-13.5 l 9,21.5 c -6,4.833 -13.41,8.75 -22.25,11.75 -8.66,2.833 -17.5,4.25 -26.5,4.25 -20.66,0 -36.91,-5.833 -48.75,-17.5 -11.83,-11.667 -17.75,-27.667 -17.75,-48 0,-12.833 2.59,-24.25 7.75,-34.25 5.17,-10 12.42,-17.75 21.75,-23.25 9.34,-5.667 19.92,-8.5 31.75,-8.5 17.34,0 31,5.667 41,17 10.17,11.167 15.25,26.583 15.25,46.25 z M 2588.4,644 c -8.33,0 -15.16,2.5 -20.5,7.5 -5.16,4.833 -8.5,11.917 -10,21.25 h 58.75 c -1,-9.5 -3.91,-16.667 -8.75,-21.5 -4.66,-4.833 -11.16,-7.25 -19.5,-7.25 z" />
    </g>
    <path
       style="stroke-width:0.0945402"
       id="path16607"
       fill="#ffffff"
       d="m 150.39735,57.970419 41.8812,24.178596 V 130.5062 l -41.8812,24.1786 -41.8812,-24.1786 V 82.149015 Z" />
    <path
       style="stroke-width:0.0945402"
       id="path16609"
       fill="#000000"
       d="m 179.32781,130.98561 6.90141,-3.99015 V 97.488124 l -6.90141,3.990156 z" />
    <path
       style="stroke-width:0.0945402"
       id="path16611"
       fill="#000000"
       d="m 174.22265,133.93734 -6.80688,3.93551 v -29.50734 l 6.80688,-3.9355 z" />
    <path
       style="stroke-width:0.0945402"
       id="path16613"
       fill="#000000"
       d="m 155.50374,144.76009 v -29.50744 l 6.80687,-3.93551 v 29.50744 z" />
    <path
       style="stroke-width:0.0945402"
       id="path16615"
       fill="#000000"
       d="m 150.39877,57.11956 42.63893,24.617639 v 49.235181 l -42.63893,24.61717 -42.63894,-24.61717 V 81.737199 Z m -1.9e-4,1.985339 40.93693,23.634991 h -19.70543 l -21.2315,23.63499 -40.93703,-23.63499 z m -40.93703,29.496468 0,41.408503 40.93703,23.63499 40.93693,-23.63499 V 88.601367 l -40.93693,23.634983 z"
       clip-rule="evenodd"
       fill-rule="evenodd" />
    <text
       id="text16657"
       y="114.91251"
       x="222.31412"
       style="font-style:normal;font-weight:normal;font-size:19.7556px;line-height:125%;font-family:sans-serif;letter-spacing:0px;word-spacing:0px;fill:#000000;fill-opacity:1;stroke:none;stroke-width:0.367863px;stroke-linecap:butt;stroke-linejoin:miter;stroke-opacity:1"
       xml:space="preserve"><tspan
         style="font-style:normal;font-variant:normal;font-weight:bold;font-stretch:normal;font-size:19.7556px;font-family:Muli;-inkscape-font-specification:'Muli Bold';stroke-width:0.367863px"
         y="114.91251"
         x="222.31412"
         id="tspan16655"
         sodipodi:role="line">Let's talk about public code</tspan></text>
    <text
       xml:space="preserve"
       style="font-style:normal;font-weight:normal;font-size:11.2889px;line-height:125%;font-family:sans-serif;letter-spacing:0px;word-spacing:0px;fill:#000000;fill-opacity:1;stroke:none;stroke-width:0.367863px;stroke-linecap:butt;stroke-linejoin:miter;stroke-opacity:1"
       x="222.31383"
       y="179.07233"
       id="text16751"><tspan
         id="tspan16787"
         sodipodi:role="line"
         x="222.31383"
         y="179.07233"
         style="font-style:normal;font-variant:normal;font-weight:bold;font-stretch:normal;font-size:11.2889px;font-family:Muli;-inkscape-font-specification:'Muli Bold';stroke-width:0.367863px">with</tspan></text>
    <text
       id="text16777"
       y="195.91411"
       x="251.64713"
       style="font-style:normal;font-weight:normal;font-size:19.7556px;line-height:125%;font-family:sans-serif;letter-spacing:0px;word-spacing:0px;fill:#000000;fill-opacity:1;stroke:none;stroke-width:0.367863px;stroke-linecap:butt;stroke-linejoin:miter;stroke-opacity:1"
       xml:space="preserve"><tspan
         style="font-style:normal;font-variant:normal;font-weight:bold;font-stretch:normal;font-size:19.7556px;font-family:Muli;-inkscape-font-specification:'Muli Bold';stroke-width:0.367863px"
         y="195.91411"
         x="251.64713"
         sodipodi:role="line"
         id="tspan16775">Name Nameson</tspan></text>
    <g
       inkscape:export-ydpi="96.027008"
       inkscape:export-xdpi="96.027008"
       inkscape:export-filename="/home/ainali/Foundation for Public Code/stream/LIVE.png"
       transform="matrix(1.5834146,0,0,1.5834146,-7.402774,-11.188592)"
       id="g17058">
      <g
         aria-label="LIVE"
         id="text17043"
         style="font-style:normal;font-weight:normal;font-size:11.2889px;line-height:125%;font-family:sans-serif;letter-spacing:0px;word-spacing:0px;fill:#000000;fill-opacity:1;stroke:none;stroke-width:0.367863px;stroke-linecap:butt;stroke-linejoin:miter;stroke-opacity:1"
         transform="translate(-0.52173702,-0.08851752)">
        <path
           d="m 13.210439,26.02591 0.62089,-10.69118 h 30.832595 l -0.632178,10.69118 z"
           style="font-style:italic;font-variant:normal;font-weight:bold;font-stretch:normal;font-size:11.2889px;font-family:Muli;-inkscape-font-specification:'Muli Bold Italic';fill:#ff0000;stroke-width:0.367863px"
           id="path17047"
           sodipodi:nodetypes="ccccc" />
      </g>
      <text
         xml:space="preserve"
         style="font-style:normal;font-weight:normal;font-size:11.2889px;line-height:125%;font-family:sans-serif;letter-spacing:0px;word-spacing:0px;fill:#f2f2f2;fill-opacity:1;stroke:none;stroke-width:0.367863px;stroke-linecap:butt;stroke-linejoin:miter;stroke-opacity:1"
         x="15.921719"
         y="24.610651"
         id="text17034"><tspan
           id="tspan17032"
           sodipodi:role="line"
           x="15.921719"
           y="24.610651"
           style="font-style:italic;font-variant:normal;font-weight:bold;font-stretch:normal;font-size:11.2889px;font-family:Muli;-inkscape-font-specification:'Muli Bold Italic';fill:#f2f2f2;stroke-width:0.367863px">LIVE</tspan></text>
    </g>
    <g
       transform="translate(0,4.7266243)"
       id="g17108">
      <text
         xml:space="preserve"
         style="font-style:normal;font-weight:normal;font-size:11.2889px;line-height:125%;font-family:sans-serif;letter-spacing:0px;word-spacing:0px;fill:#000000;fill-opacity:1;stroke:none;stroke-width:0.367863px;stroke-linecap:butt;stroke-linejoin:miter;stroke-opacity:1"
         x="222.31383"
         y="199.74091"
         id="text17084"><tspan
           id="tspan17082"
           sodipodi:role="line"
           x="222.31383"
           y="199.74091"
           style="font-style:normal;font-variant:normal;font-weight:bold;font-stretch:normal;font-size:11.2889px;font-family:Muli;-inkscape-font-specification:'Muli Bold';stroke-width:0.367863px">from</tspan></text>
      <text
         id="text17098"
         y="217.15901"
         x="251.64713"
         style="font-style:normal;font-weight:normal;font-size:19.7556px;line-height:125%;font-family:sans-serif;letter-spacing:0px;word-spacing:0px;fill:#000000;fill-opacity:1;stroke:none;stroke-width:0.367863px;stroke-linecap:butt;stroke-linejoin:miter;stroke-opacity:1"
         xml:space="preserve"><tspan
           style="font-style:normal;font-variant:normal;font-weight:bold;font-stretch:normal;font-size:19.7556px;font-family:Muli;-inkscape-font-specification:'Muli Bold';stroke-width:0.367863px"
           y="217.15901"
           x="251.64713"
           sodipodi:role="line"
           id="tspan17096">Codebase X</tspan></text>
    </g>
  </g>
</svg>
